<?xml version="1.0" encoding="UTF-8"?>
<svg width="167px" height="167px" viewBox="0 0 167 167" version="1.1" xmlns="http://www.w3.org/2000/svg" xmlns:xlink="http://www.w3.org/1999/xlink">
    <title>Icon-App-83.5x83.5@2x</title>
    <g id="Template---App-Icons" stroke="none" stroke-width="1" fill="none" fill-rule="evenodd">
        <g id="Icon-App-83.5x83.5">
            <rect id="App-Icon-1024x1024" fill="#FFFFFF" x="0" y="0" width="167" height="167"></rect>
            <g id="Group" transform="translate(73.034825, 10.926758)" fill-rule="nonzero">
                <g id="HouseCall">
                    <path d="M20.9033212,72.7363281 L62.341075,72.7363281 C65.3642541,72.7363281 67.7358978,71.8813039 69.4559259,70.1712636 C71.175954,68.4612232 72.035968,66.1745479 72.035968,63.3112214 L72.035968,28.3150576 L60.6992663,20.3614044 L60.6992663,58.4992107 C60.6992663,60.3020664 59.8131524,61.2034984 58.0409246,61.2034984 L25.2034715,61.2034984 C23.4313237,61.2034984 22.5452098,60.3020664 22.5452098,58.4992107 L22.5452098,20.3614044 L11.2085082,28.3150576 L11.2085082,63.3112214 C11.2085082,66.1745479 12.0685222,68.4612232 13.7885503,70.1712636 C15.5086585,71.8813039 17.8802221,72.7363281 20.9033212,72.7363281 Z M0,34.638251 C0,36.2555166 0.514695431,37.5611713 1.54411832,38.555378 C2.5735412,39.5495846 3.9222469,40.0467287 5.59015536,40.0467287 C6.2938105,40.0467287 7.01708055,39.8942625 7.7598054,39.5894115 C8.50253025,39.2844791 9.19970046,38.8536318 9.85123595,38.2968696 L39.0531243,13.4018764 C40.6428933,12.0232464 42.2586821,12.0232464 43.9005708,13.4018764 L73.0246399,38.2968696 C73.6755349,38.8536318 74.3728652,39.2844791 75.1158303,39.5894115 C75.8579947,39.8942625 76.5817451,40.0467287 77.2854803,40.0467287 C78.9795687,40.0467287 80.3349995,39.5495846 81.3509722,38.555378 C82.3669448,37.5611713 82.8753314,36.2555166 82.8753314,34.638251 C82.8753314,32.8353708 82.1067469,31.2844019 80.5687773,29.9853443 L48.787087,2.82355667 C46.5979822,0.941185556 44.161249,0 41.4768875,0 C38.7925261,0 36.3557929,0.941185556 34.166608,2.82355667 L2.30645808,30.0250898 C0.768808686,31.3242288 0,32.8619221 0,34.638251 Z" id="Shape" fill="#007AFF"></path>
                    <path d="M26.0087476,42.3924601 C26.0087476,43.2779041 26.280294,43.9876634 26.8233038,44.5214843 C27.3663965,45.0554743 28.0723009,45.322427 28.9411829,45.322427 L35.7261096,45.322427 L35.7261096,52.256685 C35.7261096,53.1422136 35.9912696,53.8584014 36.5215066,54.4053331 C37.0517435,54.9522648 37.7449581,55.2257306 38.6010673,55.2257306 L44.7150904,55.2257306 C45.5839724,55.2257306 46.2803387,54.9522648 46.8041892,54.4053331 C47.3281228,53.8584014 47.5900481,53.1422136 47.5900481,52.256685 L47.5900481,45.322427 L54.394134,45.322427 C55.2757888,45.322427 55.9816932,45.0554743 56.5120131,44.5214843 C57.0422501,43.9876634 57.30741,43.2779041 57.30741,42.3924601 L57.30741,36.1612791 C57.30741,35.2758352 57.0422501,34.5660759 56.5120131,34.0321704 C55.9816932,33.4982649 55.2757888,33.2313122 54.394134,33.2313122 L47.5900481,33.2313122 L47.5900481,26.3165089 C47.5900481,25.431065 47.3281228,24.7147925 46.8041892,24.1678609 C46.2803387,23.6209292 45.5839724,23.3474633 44.7150904,23.3474633 L38.6010673,23.3474633 C37.7449581,23.3474633 37.0517435,23.6209292 36.5215066,24.1678609 C35.9912696,24.7147925 35.7261096,25.431065 35.7261096,26.3165089 L35.7261096,33.2313122 L28.9220237,33.2313122 C28.0531417,33.2313122 27.350389,33.4982649 26.8137656,34.0321704 C26.2770593,34.5660759 26.0087476,35.2758352 26.0087476,36.1612791 L26.0087476,42.3924601 Z" id="Path" fill="#FF3B30"></path>
                </g>
            </g>
        </g>
    </g>
</svg>